ModelForces
version=1
nRows=4
nColumns=157
inDegrees=no

This file contains the forces exerted on a model during a simulation.

A force is a generalized force, meaning that it can be either a force (N) or a torque (Nm).

Units are S.I. units (second, meters, Newtons, ...)
Angles are in degrees.

endheader
time	glut_med1_r	glut_med2_r	glut_med3_r	glut_min1_r	glut_min2_r	glut_min3_r	semimem_r	semiten_r	bifemlh_r	bifemsh_r	sar_r	add_long_r	add_brev_r	add_mag1_r	add_mag2_r	add_mag3_r	tfl_r	pect_r	grac_r	glut_max1_r	glut_max2_r	glut_max3_r	iliacus_r	psoas_r	quad_fem_r	gem_r	peri_r	rect_fem_r	vas_med_r	vas_int_r	vas_lat_r	med_gas_r	lat_gas_r	soleus_r	tib_post_r	flex_dig_r	flex_hal_r	tib_ant_r	per_brev_r	per_long_r	per_tert_r	ext_dig_r	ext_hal_r	glut_med1_l	glut_med2_l	glut_med3_l	glut_min1_l	glut_min2_l	glut_min3_l	semimem_l	semiten_l	bifemlh_l	bifemsh_l	sar_l	add_long_l	add_brev_l	add_mag1_l	add_mag2_l	add_mag3_l	tfl_l	pect_l	grac_l	glut_max1_l	glut_max2_l	glut_max3_l	iliacus_l	psoas_l	quad_fem_l	gem_l	peri_l	rect_fem_l	vas_med_l	vas_int_l	vas_lat_l	med_gas_l	lat_gas_l	soleus_l	tib_post_l	flex_dig_l	flex_hal_l	tib_ant_l	per_brev_l	per_long_l	per_tert_l	ext_dig_l	ext_hal_l	ercspn_r	ercspn_l	intobl_r	intobl_l	extobl_r	extobl_l	femur_lat_meniscii_r.femur_lat_r.force.X	femur_lat_meniscii_r.femur_lat_r.force.Y	femur_lat_meniscii_r.femur_lat_r.force.Z	femur_lat_meniscii_r.femur_lat_r.torque.X	femur_lat_meniscii_r.femur_lat_r.torque.Y	femur_lat_meniscii_r.femur_lat_r.torque.Z	femur_lat_meniscii_r.meniscus_lat_r.force.X	femur_lat_meniscii_r.meniscus_lat_r.force.Y	femur_lat_meniscii_r.meniscus_lat_r.force.Z	femur_lat_meniscii_r.meniscus_lat_r.torque.X	femur_lat_meniscii_r.meniscus_lat_r.torque.Y	femur_lat_meniscii_r.meniscus_lat_r.torque.Z	femur_med_meniscii_r.femur_med_r.force.X	femur_med_meniscii_r.femur_med_r.force.Y	femur_med_meniscii_r.femur_med_r.force.Z	femur_med_meniscii_r.femur_med_r.torque.X	femur_med_meniscii_r.femur_med_r.torque.Y	femur_med_meniscii_r.femur_med_r.torque.Z	femur_med_meniscii_r.meniscus_med_r.force.X	femur_med_meniscii_r.meniscus_med_r.force.Y	femur_med_meniscii_r.meniscus_med_r.force.Z	femur_med_meniscii_r.meniscus_med_r.torque.X	femur_med_meniscii_r.meniscus_med_r.torque.Y	femur_med_meniscii_r.meniscus_med_r.torque.Z	femur_med_tibia_r.tibia_upper_r.force.X	femur_med_tibia_r.tibia_upper_r.force.Y	femur_med_tibia_r.tibia_upper_r.force.Z	femur_med_tibia_r.tibia_upper_r.torque.X	femur_med_tibia_r.tibia_upper_r.torque.Y	femur_med_tibia_r.tibia_upper_r.torque.Z	femur_med_tibia_r.femur_med_r.force.X	femur_med_tibia_r.femur_med_r.force.Y	femur_med_tibia_r.femur_med_r.force.Z	femur_med_tibia_r.femur_med_r.torque.X	femur_med_tibia_r.femur_med_r.torque.Y	femur_med_tibia_r.femur_med_r.torque.Z	femur_lat_tibia_r.tibia_upper_r.force.X	femur_lat_tibia_r.tibia_upper_r.force.Y	femur_lat_tibia_r.tibia_upper_r.force.Z	femur_lat_tibia_r.tibia_upper_r.torque.X	femur_lat_tibia_r.tibia_upper_r.torque.Y	femur_lat_tibia_r.tibia_upper_r.torque.Z	femur_lat_tibia_r.femur_lat_r.force.X	femur_lat_tibia_r.femur_lat_r.force.Y	femur_lat_tibia_r.femur_lat_r.force.Z	femur_lat_tibia_r.femur_lat_r.torque.X	femur_lat_tibia_r.femur_lat_r.torque.Y	femur_lat_tibia_r.femur_lat_r.torque.Z	aACL_R	pACL_R	aPCL_R	pPCL_R	aMCL_R	mMCL_R	pMCL_R	aLCL_R	mLCL_R	pLCL_R	ground_prescribedForce_fx	ground_prescribedForce_fy	ground_prescribedForce_fz	ground_prescribedForce_px	ground_prescribedForce_py	ground_prescribedForce_pz
      0.50922174	      7.59033833	      5.69495809	      6.09636616	      2.67205827	      3.19313993	      3.21063504	      7.30970520	      4.20333152	      7.26476907	      6.97335823	      2.84014069	      5.64255353	      4.16131385	      2.93385897	      2.46657732	      4.01059849	      3.53301638	      2.24983257	      1.57522500	      3.67490359	      5.58470579	      4.16923609	     22.70055479	     13.02639260	      3.64496284	      2.86287494	      4.12436345	     11.88488904	      8.84645893	      8.99895166	     11.51944490	      3.24688336	      1.72762807	      9.10968529	     12.78644180	      2.64784453	      2.54756516	     14.61719715	      3.44486658	      6.87591832	     10.50109719	      8.35411976	      2.11280354	      7.59033833	      5.69495809	      6.09636616	      2.67205827	      3.19313993	      3.21063504	      8.80704050	      4.10594483	      7.73429085	      7.25243176	      1.52720933	      5.64255353	      4.16131385	      2.93385897	      2.46657732	      4.01059849	      4.11133098	      2.24983257	      1.56649268	      3.67490359	      5.58470579	      4.16923609	     22.70055479	     13.02639260	      3.64496284	      2.86287494	      4.12436345	     10.73716621	      6.62744181	      7.60297825	      8.17503243	     14.10991345	      6.55168571	     31.34715308	     42.46111421	      2.75598818	      2.93559895	      8.50445871	      4.36564483	     12.52378906	      2.01512153	      5.31878378	      1.68972670	     25.13028514	     25.13028514	      9.04864397	      9.04864397	     26.84830340	     26.84830340	     35.64266626	     74.07451090	     10.97483219	     -6.39217482	      0.87246522	     14.87680972	    -35.64266626	    -74.07451090	    -10.97483219	      2.24162420	     -0.97960925	     -0.67401110	     39.65046932	     60.58137024	     14.37369243	     -4.60181973	     -0.96303063	     16.64681796	    -39.65046932	    -60.58137024	    -14.37369243	     -0.86772026	      0.82918464	     -0.99472286	      0.00000000	      0.00000000	      0.00000000	      0.00000000	      0.00000000	      0.00000000	      0.00000000	      0.00000000	      0.00000000	      0.00000000	      0.00000000	      0.00000000	      0.00000000	      0.00000000	      0.00000000	      0.00000000	      0.00000000	      0.00000000	      0.00000000	      0.00000000	      0.00000000	      0.00000000	      0.00000000	      0.00000000	     47.15611235	     39.55208829	      0.00000000	      0.00000000	      0.00000000	      4.96661155	      4.96987481	     -0.29567698	      0.00000000	      0.00000000	    106.25000000	    -28.47000000	      0.00000000	      0.03000000	     -0.03000000	      0.00000000
      0.51036020	      7.58968585	      5.69450861	      6.09587904	      2.67185625	      3.19292147	      3.21035962	      7.30537421	      4.20203105	      7.25897285	      6.99508415	      2.23634270	      5.64210300	      4.16100142	      2.93362911	      2.46637946	      4.01024211	      3.53332033	      2.24966144	      1.57791502	      3.67461379	      5.58426403	      4.16890026	     22.69973979	     13.02547607	      3.64468137	      2.86274319	      4.12383929	     11.87754537	      8.84685375	      8.99984964	     11.52002856	      3.24922283	      1.72916902	      9.11376952	     12.77199159	      2.66587395	      2.53981844	     14.62667059	      3.45619515	      6.89316471	     10.51241993	      8.30953625	      2.11379091	      7.58968585	      5.69450861	      6.09587904	      2.67185625	      3.19292147	      3.21035962	      8.80609005	      4.10559525	      7.73350007	      7.25187137	      1.52709434	      5.64210300	      4.16100142	      2.93362911	      2.46637946	      4.01024211	      4.11111058	      2.24966144	      1.56637278	      3.67461379	      5.58426403	      4.16890026	     22.69973979	     13.02547607	      3.64468137	      2.86274319	      4.12383929	     10.73608998	      6.62690680	      7.60235263	      8.17436315	     14.10757743	      6.55059928	     31.34317899	     42.45955819	      2.75506103	      2.93496302	      8.50364887	      4.36515952	     12.52261914	      2.01497935	      5.31851605	      1.68965129	     25.12838107	     25.12838107	      9.04789752	      9.04789752	     26.84763290	     26.84763290	     35.71338558	     74.22516801	     10.88113517	     -6.35604501	      0.87386690	     14.90642029	    -35.71338558	    -74.22516801	    -10.88113517	      2.24156739	     -0.98042506	     -0.67525588	     39.60581978	     60.46924831	     14.37795007	     -4.60625223	     -0.96197456	     16.62825010	    -39.60581978	    -60.46924831	    -14.37795007	     -0.86510413	      0.82815612	     -0.99393136	      0.00000000	      0.00000000	      0.00000000	      0.00000000	      0.00000000	      0.00000000	      0.00000000	      0.00000000	      0.00000000	      0.00000000	      0.00000000	      0.00000000	      0.00000000	      0.00000000	      0.00000000	      0.00000000	      0.00000000	      0.00000000	      0.00000000	      0.00000000	      0.00000000	      0.00000000	      0.00000000	      0.00000000	     47.18733456	     39.57923537	      0.00000000	      0.00000000	      0.00000000	      4.90661174	      4.91126590	     -0.36919374	      0.00000000	      0.00000000	    106.25000000	    -28.47000000	      0.00000000	      0.03000000	     -0.03000000	      0.00000000
      0.51251571	      7.58847642	      5.69367545	      6.09497609	      2.67148186	      3.19251654	      3.20984908	      7.29387095	      4.19774953	      7.24590338	      7.00572392	      1.65945738	      5.64126788	      4.16042331	      2.93320304	      2.46601272	      4.00958153	      3.53304750	      2.24934423	      1.57922408	      3.67407660	      5.58344518	      4.16827774	     22.69822907	     13.02377718	      3.64415962	      2.86249897	      4.12286750	     11.85983018	      8.83694005	      8.99112928	     11.51041548	      3.24862955	      1.73036480	      9.11882732	     12.74240726	      2.69907707	      2.52411482	     14.64531407	      3.47761926	      6.92667976	     10.53232434	      8.22880564	      2.11705892	      7.58847642	      5.69367545	      6.09497609	      2.67148186	      3.19251654	      3.20984908	      8.80432824	      4.10494728	      7.73203426	      7.25083261	      1.52688130	      5.64126788	      4.16042331	      2.93320304	      2.46601272	      4.00958153	      4.11070204	      2.24934423	      1.56615053	      3.67407660	      5.58344518	      4.16827774	     22.69822907	     13.02377718	      3.64415962	      2.86249897	      4.12286750	     10.73409504	      6.62591509	      7.60119297	      8.17312257	     14.10324328	      6.54858358	     31.33581115	     42.45667364	      2.75331569	      2.93377024	      8.50214774	      4.36425990	     12.52044961	      2.01471580	      5.31803568	      1.68951617	     25.12485206	     25.12485206	      9.04651389	      9.04651389	     26.84639005	     26.84639005	     35.83328874	     74.40487541	     10.92252266	     -6.37787620	      0.87691224	     14.95692407	    -35.83328874	    -74.40487541	    -10.92252266	      2.24750293	     -0.98383230	     -0.67815015	     39.55435934	     60.32563533	     14.37539535	     -4.60852259	     -0.96086397	     16.60710612	    -39.55435934	    -60.32563533	    -14.37539535	     -0.86212001	      0.82713527	     -0.99327241	      0.00000000	      0.00000000	      0.00000000	      0.00000000	      0.00000000	      0.00000000	      0.00000000	      0.00000000	      0.00000000	      0.00000000	      0.00000000	      0.00000000	      0.00000000	      0.00000000	      0.00000000	      0.00000000	      0.00000000	      0.00000000	      0.00000000	      0.00000000	      0.00000000	      0.00000000	      0.00000000	      0.00000000	     47.14458712	     39.52021309	      0.00000000	      0.00000000	      0.00000000	      4.69978900	      4.70714411	     -0.58798294	      0.00000000	      0.00000000	    106.25000000	    -28.47000000	      0.00000000	      0.03000000	     -0.03000000	      0.00000000
      0.51703039	      7.58604959	      5.69200360	      6.09316421	      2.67073067	      3.19170400	      3.20882464	      7.26462993	      4.18635261	      7.21802425	      7.01036293	      1.47132729	      5.63959211	      4.15926393	      2.93234807	      2.46527681	      4.00825601	      3.53141049	      2.24870775	      1.57757938	      3.67299867	      5.58180207	      4.16702859	     22.69519766	     13.02036823	      3.64311267	      2.86200894	      4.12091673	     11.81798419	      8.79964262	      8.95743084	     11.47368914	      3.24530865	      1.73335099	      9.13521932	     12.67701709	      2.76429921	      2.48721551	     14.68281037	      3.52130862	      6.99916420	     10.56894886	      8.07846993	      2.12945897	      7.58604959	      5.69200360	      6.09316421	      2.67073067	      3.19170400	      3.20882464	      8.80079277	      4.10364706	      7.72909288	      7.24874823	      1.52645391	      5.63959211	      4.15926393	      2.93234807	      2.46527681	      4.00825601	      4.10988228	      2.24870775	      1.56570456	      3.67299867	      5.58180207	      4.16702859	     22.69519766	     13.02036823	      3.64311267	      2.86200894	      4.12091673	     10.73009193	      6.62392513	      7.59886602	      8.17063324	     14.09453019	      6.54453130	     31.32102122	     42.45088428	      2.74970122	      2.93131836	      8.49913558	      4.36245452	     12.51609249	      2.01418697	      5.31713797	      1.68926446	     25.11777121	     25.11777121	      9.04373749	      9.04373749	     26.84389615	     26.84389615	     36.02382302	     74.72076100	     11.01085920	     -6.42294191	      0.88176878	     15.03728217	    -36.02382302	    -74.72076100	    -11.01085920	      2.25857656	     -0.98939373	     -0.68252780	     39.41054300	     60.08148691	     14.40785832	     -4.62819774	     -0.95787049	     16.54726242	    -39.41054300	    -60.08148691	    -14.40785832	     -0.85543359	      0.82411517	     -0.98984218	      0.00000000	      0.00000000	      0.00000000	      0.00000000	      0.00000000	      0.00000000	      0.00000000	      0.00000000	      0.00000000	      0.00000000	      0.00000000	      0.00000000	      0.00000000	      0.00000000	      0.00000000	      0.00000000	      0.00000000	      0.00000000	      0.00000000	      0.00000000	      0.00000000	      0.00000000	      0.00000000	      0.00000000	     47.20306534	     39.54842366	      0.00000000	      0.00000000	      0.00000000	      4.60267127	      4.61196895	     -0.60268633	      0.00000000	      0.00000000	    106.25000000	    -28.47000000	      0.00000000	      0.03000000	     -0.03000000	      0.00000000
